<svg width="138" height="108" viewBox="0 0 138 108" fill="none" xmlns="http://www.w3.org/2000/svg">
<path d="M33.368 56V48.419H35.135V29.381H33.14L34.394 21.8H42.887V48.419H44.711V56H33.368ZM47.0004 45.968L54.7524 46.823V48.134C54.7524 48.324 54.8474 48.419 55.0374 48.419H56.6334C56.8234 48.419 56.9184 48.324 56.9184 48.134V44.999H52.3584C50.7624 44.999 49.4704 44.524 48.4824 43.574C47.4944 42.624 47.0004 41.332 47.0004 39.698V27.101C47.0004 25.505 47.4944 24.232 48.4824 23.282C49.4704 22.294 50.7624 21.8 52.3584 21.8H59.3124C60.8704 21.8 62.1434 22.294 63.1314 23.282C64.1574 24.232 64.6704 25.505 64.6704 27.101V50.699C64.6704 52.295 64.1764 53.587 63.1884 54.575C62.2004 55.525 60.9084 56 59.3124 56H52.3584C50.7624 56 49.4704 55.525 48.4824 54.575C47.4944 53.625 47.0004 52.333 47.0004 50.699V45.968ZM55.0374 29.381C54.8474 29.381 54.7524 29.476 54.7524 29.666V37.133C54.7524 37.323 54.8474 37.418 55.0374 37.418H56.6334C56.8234 37.418 56.9184 37.323 56.9184 37.133V29.666C56.9184 29.476 56.8234 29.381 56.6334 29.381H55.0374ZM66.9281 45.968L74.6801 46.823V48.134C74.6801 48.324 74.7751 48.419 74.9651 48.419H76.5611C76.7511 48.419 76.8461 48.324 76.8461 48.134V44.999H72.2861C70.6901 44.999 69.3981 44.524 68.4101 43.574C67.4221 42.624 66.9281 41.332 66.9281 39.698V27.101C66.9281 25.505 67.4221 24.232 68.4101 23.282C69.3981 22.294 70.6901 21.8 72.2861 21.8H79.2401C80.7981 21.8 82.0711 22.294 83.0591 23.282C84.0851 24.232 84.5981 25.505 84.5981 27.101V50.699C84.5981 52.295 84.1041 53.587 83.1161 54.575C82.1281 55.525 80.8361 56 79.2401 56H72.2861C70.6901 56 69.3981 55.525 68.4101 54.575C67.4221 53.625 66.9281 52.333 66.9281 50.699V45.968ZM74.9651 29.381C74.7751 29.381 74.6801 29.476 74.6801 29.666V37.133C74.6801 37.323 74.7751 37.418 74.9651 37.418H76.5611C76.7511 37.418 76.8461 37.323 76.8461 37.133V29.666C76.8461 29.476 76.7511 29.381 76.5611 29.381H74.9651ZM86.8558 56V48.419H94.0378C94.2278 48.419 94.3228 48.324 94.3228 48.134V41.465C94.3228 41.275 94.2278 41.18 94.0378 41.18H86.8558V21.8H102.075V29.381H94.6078V33.599H96.7168C98.3128 33.599 99.6048 34.093 100.593 35.081C101.581 36.031 102.075 37.304 102.075 38.9V50.699C102.075 52.295 101.581 53.587 100.593 54.575C99.6048 55.525 98.3128 56 96.7168 56H86.8558Z" fill="#434343"/>
<mask id="path-2-outside-1_757_18" maskUnits="userSpaceOnUse" x="7" y="21" width="25" height="35" fill="black">
<rect fill="white" x="7" y="21" width="25" height="35"/>
<path d="M8.28 42.84L16.984 43.48V46.168C16.984 46.3813 17.0907 46.488 17.304 46.488H21.144C21.3573 46.488 21.464 46.3813 21.464 46.168V44.248L11.864 40.728C11.1813 40.5147 10.4133 40.0667 9.56 39.384C8.70667 38.7013 8.28 37.6347 8.28 36.184V28.696C8.28 26.8613 8.83467 25.4107 9.944 24.344C11.0533 23.2773 12.504 22.744 14.296 22.744H20.952C24.2373 22.744 26.584 23.448 27.992 24.856C29.4427 26.264 30.168 28.6107 30.168 31.896V34.904L21.464 34.264V31.576C21.464 31.3627 21.3573 31.256 21.144 31.256H17.304C17.0907 31.256 16.984 31.3627 16.984 31.576V33.432L26.584 36.952C27.2667 37.1653 28.0347 37.6133 28.888 38.296C29.7413 38.9787 30.168 40.0453 30.168 41.496V49.048C30.168 50.84 29.6133 52.2907 28.504 53.4C27.3947 54.4667 25.944 55 24.152 55H17.496C14.2107 55 11.8427 54.296 10.392 52.888C8.984 51.4373 8.28 49.0907 8.28 45.848V42.84Z"/>
</mask>
<path d="M8.28 42.84L8.31667 42.3413L7.78 42.84H8.28ZM16.984 43.48H17.484L17.0207 42.9813L16.984 43.48ZM21.464 44.248H21.964L21.6361 43.7786L21.464 44.248ZM11.864 40.728L12.0361 40.2586L12.0131 40.2508L11.864 40.728ZM9.56 39.384L9.87235 38.9936L9.87235 38.9936L9.56 39.384ZM9.944 24.344L9.59745 23.9836L9.59745 23.9836L9.944 24.344ZM27.992 24.856L27.6384 25.2096L27.6438 25.2148L27.992 24.856ZM30.168 34.904L30.1313 35.4027L30.668 34.904H30.168ZM21.464 34.264H20.964L21.4273 34.7627L21.464 34.264ZM16.984 33.432H16.484L16.8119 33.9014L16.984 33.432ZM26.584 36.952L26.4119 37.4214L26.4349 37.4292L26.584 36.952ZM28.888 38.296L28.5757 38.6864L28.5757 38.6864L28.888 38.296ZM28.504 53.4L28.8506 53.7605L28.8576 53.7536L28.504 53.4ZM10.392 52.888L10.0332 53.2362L10.0438 53.2468L10.392 52.888ZM7.78 43.592V44.092H8.78V43.592H7.78ZM8.78 45.096V44.596H7.78V45.096H8.78ZM7.87115 47.7782L7.92107 48.2757L8.91607 48.1759L8.86616 47.6784L7.87115 47.7782ZM9.76734 51.1274L9.5446 50.6798L8.64931 51.1253L8.87206 51.5729L9.76734 51.1274ZM11.7241 54.4136L12.1727 54.6345L12.6146 53.7374L12.166 53.5165L11.7241 54.4136ZM15.6492 54.4145L15.1516 54.3655L15.0535 55.3606L15.551 55.4097L15.6492 54.4145ZM19.16 55.5H19.66V54.5H19.16V55.5ZM22.488 54.5H21.988V55.5H22.488V54.5ZM25.412 55.4093L25.9064 55.3349L25.7576 54.346L25.2631 54.4204L25.412 55.4093ZM27.3041 53.7001L26.8776 53.9611L27.3996 54.814L27.8261 54.553L27.3041 53.7001ZM29.6752 52.7393L29.9445 52.318L29.102 51.7794L28.8327 52.2006L29.6752 52.7393ZM29.5844 50.1628L29.5066 50.6567L30.4944 50.8124L30.5723 50.3185L29.5844 50.1628ZM30.668 47.16V46.66H29.668V47.16H30.668ZM29.668 43.384V43.884H30.668V43.384H29.668ZM30.6026 40.5347L30.5313 40.0398L29.5415 40.1825L29.6129 40.6774L30.6026 40.5347ZM29.084 39.2307L29.3686 39.6418L30.1908 39.0727L29.9062 38.6616L29.084 39.2307ZM28.6438 37.484L28.2367 37.1937L27.6561 38.0079L28.0632 38.2982L28.6438 37.484ZM26.9902 37.651L27.4412 37.8669L27.8731 36.965L27.4222 36.7491L26.9902 37.651ZM24.3561 35.6026L23.8867 35.4304L23.5424 36.3693L24.0119 36.5414L24.3561 35.6026ZM19.2119 34.7814L19.6813 34.9536L20.0256 34.0147L19.5561 33.8426L19.2119 34.7814ZM17.484 32.968V32.468H16.484V32.968H17.484ZM16.484 32.04V32.54H17.484V32.04H16.484ZM17.4803 31.5879L17.6206 31.108L16.6608 30.8274L16.5205 31.3073L17.4803 31.5879ZM17.0353 30.7925L16.5554 30.9328L16.836 31.8926L17.3159 31.7523L17.0353 30.7925ZM18.264 31.756H18.764V30.756H18.264V31.756ZM20.184 30.756H19.684V31.756H20.184V30.756ZM21.1321 31.7523L21.612 31.8926L21.8926 30.9328L21.4127 30.7925L21.1321 31.7523ZM21.9275 31.3073L21.7872 30.8274L20.8274 31.108L20.9677 31.5879L21.9275 31.3073ZM20.964 32.248V32.748H21.964V32.248H20.964ZM21.964 33.592V33.092H20.964V33.592H21.964ZM23.6033 34.9227L24.102 34.9593L24.1753 33.962L23.6767 33.9253L23.6033 34.9227ZM28.0287 34.2453L27.53 34.2087L27.4567 35.206L27.9553 35.2427L28.0287 34.2453ZM30.668 34.152V33.652H29.668V34.152H30.668ZM29.668 32.648V33.148H30.668V32.648H29.668ZM30.5754 29.9568L30.5248 29.4594L29.5299 29.5605L29.5805 30.0579L30.5754 29.9568ZM28.6572 26.6054L28.8862 27.0499L29.7751 26.5919L29.5461 26.1475L28.6572 26.6054ZM26.6834 23.3259L26.2358 23.103L25.7901 23.9983L26.2377 24.2211L26.6834 23.3259ZM22.785 23.3284L23.2826 23.3772L23.3803 22.382L22.8827 22.3331L22.785 23.3284ZM19.288 22.244H18.788V23.244H19.288V22.244ZM15.96 23.244H16.46V22.244H15.96V23.244ZM13.036 22.3347L12.5416 22.4091L12.6904 23.398L13.1849 23.3236L13.036 22.3347ZM11.144 24.0439L11.5704 23.7829L11.0484 22.93L10.6219 23.191L11.144 24.0439ZM8.76262 24.9959L8.4919 25.4162L9.33263 25.9577L9.60336 25.5373L8.76262 24.9959ZM8.86073 27.5767L8.93603 27.0824L7.94744 26.9318L7.87214 27.4261L8.86073 27.5767ZM7.78 30.568V31.068H8.78V30.568H7.78ZM8.78 34.312V33.812H7.78V34.312H8.78ZM7.84536 37.1453L7.91671 37.6402L8.90648 37.4975L8.83513 37.0026L7.84536 37.1453ZM9.36403 38.4493L9.07945 38.0382L8.25723 38.6073L8.54181 39.0184L9.36403 38.4493ZM9.80418 40.196L10.2113 40.4863L10.7919 39.6721L10.3848 39.3818L9.80418 40.196ZM11.4578 40.029L11.0068 39.8131L10.5749 40.715L11.0258 40.9309L11.4578 40.029ZM14.0919 42.0774L14.5613 42.2496L14.9056 41.3107L14.4361 41.1386L14.0919 42.0774ZM19.2361 42.8986L18.7667 42.7264L18.4224 43.6653L18.8919 43.8374L19.2361 42.8986ZM20.964 44.728V45.228H21.964V44.728H20.964ZM21.964 45.688V45.188H20.964V45.688H21.964ZM20.9677 46.1561L20.8274 46.636L21.7872 46.9166L21.9275 46.4367L20.9677 46.1561ZM21.4127 46.9515L21.8926 46.8112L21.612 45.8514L21.1321 45.9917L21.4127 46.9515ZM20.184 45.988H19.684V46.988H20.184V45.988ZM18.264 46.988H18.764V45.988H18.264V46.988ZM17.3159 45.9917L16.836 45.8514L16.5554 46.8112L17.0353 46.9515L17.3159 45.9917ZM16.5205 46.4367L16.6608 46.9166L17.6206 46.636L17.4803 46.1561L16.5205 46.4367ZM17.484 45.496V44.996H16.484V45.496H17.484ZM16.484 44.152V44.652H17.484V44.152H16.484ZM14.8447 42.8213L14.346 42.7847L14.2727 43.782L14.7713 43.8187L14.8447 42.8213ZM10.4193 43.4987L10.918 43.5353L10.9913 42.538L10.4927 42.5013L10.4193 43.4987ZM7.78 42.84V43.592H8.78V42.84H7.78ZM7.78 45.096V45.848H8.78V45.096H7.78ZM7.78 45.848C7.78 46.5271 7.8102 47.1706 7.87115 47.7782L8.86616 47.6784C8.80891 47.1077 8.78 46.4977 8.78 45.848H7.78ZM8.87206 51.5729C9.18757 52.207 9.57389 52.763 10.0332 53.2362L10.7508 52.5398C10.3699 52.1473 10.0413 51.6781 9.76734 51.1274L8.87206 51.5729ZM10.0438 53.2468C10.5201 53.7091 11.0819 54.0972 11.7241 54.4136L12.166 53.5165C11.6078 53.2415 11.1342 52.9116 10.7402 52.5292L10.0438 53.2468ZM15.551 55.4097C16.163 55.4701 16.8114 55.5 17.496 55.5V54.5C16.8403 54.5 16.2249 54.4713 15.6492 54.4145L15.551 55.4097ZM17.496 55.5H19.16V54.5H17.496V55.5ZM22.488 55.5H24.152V54.5H22.488V55.5ZM24.152 55.5C24.5882 55.5 25.0084 55.4701 25.412 55.4093L25.2631 54.4204C24.9127 54.4732 24.5425 54.5 24.152 54.5V55.5ZM27.8261 54.553C28.1938 54.328 28.5353 54.0635 28.8506 53.7604L28.1574 53.0396C27.8933 53.2936 27.6089 53.5135 27.3041 53.7001L27.8261 54.553ZM28.8576 53.7536C29.1695 53.4416 29.4424 53.1034 29.6752 52.7393L28.8327 52.2006C28.6399 52.5022 28.4128 52.7841 28.1504 53.0464L28.8576 53.7536ZM30.5723 50.3185C30.6364 49.9116 30.668 49.4879 30.668 49.048H29.668C29.668 49.44 29.6398 49.8114 29.5844 50.1628L30.5723 50.3185ZM30.668 49.048V47.16H29.668V49.048H30.668ZM30.668 43.384V41.496H29.668V43.384H30.668ZM30.668 41.496C30.668 41.1602 30.6466 40.8395 30.6026 40.5347L29.6129 40.6774C29.6493 40.9298 29.668 41.2024 29.668 41.496H30.668ZM29.9062 38.6616C29.7083 38.3757 29.4726 38.1234 29.2003 37.9056L28.5757 38.6864C28.7726 38.844 28.9416 39.0251 29.084 39.2307L29.9062 38.6616ZM29.2003 37.9056C29.0117 37.7547 28.8262 37.6141 28.6438 37.484L28.0632 38.2982C28.2294 38.4167 28.4002 38.5461 28.5757 38.6864L29.2003 37.9056ZM27.4222 36.7491C27.1887 36.6373 26.9589 36.5453 26.7331 36.4748L26.4349 37.4292C26.6092 37.4837 26.7943 37.5571 26.9902 37.651L27.4222 36.7491ZM26.7561 36.4826L24.3561 35.6026L24.0119 36.5414L26.4119 37.4214L26.7561 36.4826ZM19.5561 33.8426L17.1561 32.9626L16.8119 33.9014L19.2119 34.7814L19.5561 33.8426ZM17.484 33.432V32.968H16.484V33.432H17.484ZM17.484 32.04V31.576H16.484V32.04H17.484ZM17.484 31.576C17.484 31.5706 17.4843 31.5691 17.4841 31.571C17.4838 31.5728 17.4829 31.5788 17.4803 31.5879L16.5205 31.3073C16.4935 31.3996 16.484 31.4911 16.484 31.576H17.484ZM17.3159 31.7523C17.3068 31.7549 17.3008 31.7558 17.299 31.7561C17.2971 31.7563 17.2986 31.756 17.304 31.756V30.756C17.2191 30.756 17.1276 30.7655 17.0353 30.7925L17.3159 31.7523ZM17.304 31.756H18.264V30.756H17.304V31.756ZM20.184 31.756H21.144V30.756H20.184V31.756ZM21.144 31.756C21.1494 31.756 21.1509 31.7563 21.149 31.7561C21.1472 31.7558 21.1412 31.7549 21.1321 31.7523L21.4127 30.7925C21.3204 30.7655 21.2289 30.756 21.144 30.756V31.756ZM20.9677 31.5879C20.9651 31.5788 20.9642 31.5728 20.9639 31.571C20.9637 31.5691 20.964 31.5706 20.964 31.576H21.964C21.964 31.4911 21.9545 31.3996 21.9275 31.3073L20.9677 31.5879ZM20.964 31.576V32.248H21.964V31.576H20.964ZM20.964 33.592V34.264H21.964V33.592H20.964ZM21.4273 34.7627L23.6033 34.9227L23.6767 33.9253L21.5007 33.7653L21.4273 34.7627ZM27.9553 35.2427L30.1313 35.4027L30.2047 34.4053L28.0287 34.2453L27.9553 35.2427ZM30.668 34.904V34.152H29.668V34.904H30.668ZM30.668 32.648V31.896H29.668V32.648H30.668ZM30.668 31.896C30.668 31.2128 30.6373 30.5662 30.5754 29.9568L29.5805 30.0579C29.6386 30.6299 29.668 31.2424 29.668 31.896H30.668ZM29.5461 26.1475C29.2191 25.5126 28.8179 24.9608 28.3402 24.4972L27.6438 25.2148C28.0364 25.5959 28.375 26.0577 28.6572 26.6054L29.5461 26.1475ZM28.3456 24.5024C27.8785 24.0354 27.3226 23.6441 26.6834 23.3259L26.2377 24.2211C26.7905 24.4963 27.2556 24.8267 27.6384 25.2096L28.3456 24.5024ZM22.8827 22.3331C22.2759 22.2735 21.6322 22.244 20.952 22.244V23.244C21.6035 23.244 22.2143 23.2723 22.785 23.3284L22.8827 22.3331ZM20.952 22.244H19.288V23.244H20.952V22.244ZM15.96 22.244H14.296V23.244H15.96V22.244ZM14.296 22.244C13.8598 22.244 13.4396 22.2739 13.036 22.3347L13.1849 23.3236C13.5353 23.2708 13.9055 23.244 14.296 23.244V22.244ZM10.6219 23.191C10.2542 23.416 9.91268 23.6805 9.59745 23.9836L10.2906 24.7044C10.5547 24.4504 10.8391 24.2305 11.144 24.0439L10.6219 23.191ZM9.59745 23.9836C9.27786 24.2909 8.99927 24.6284 8.76262 24.9959L9.60336 25.5373C9.79711 25.2365 10.0259 24.9589 10.2906 24.7044L9.59745 23.9836ZM7.87214 27.4261C7.81039 27.8314 7.78 28.2549 7.78 28.696H8.78C8.78 28.3008 8.80724 27.9279 8.86073 27.5767L7.87214 27.4261ZM7.78 28.696V30.568H8.78V28.696H7.78ZM7.78 34.312V36.184H8.78V34.312H7.78ZM7.78 36.184C7.78 36.5198 7.80142 36.8405 7.84536 37.1453L8.83513 37.0026C8.79874 36.7502 8.78 36.4776 8.78 36.184H7.78ZM8.54181 39.0184C8.73967 39.3043 8.97536 39.5566 9.24765 39.7744L9.87235 38.9936C9.67542 38.836 9.50638 38.6549 9.36403 38.4493L8.54181 39.0184ZM9.24765 39.7744C9.43626 39.9253 9.62177 40.0659 9.80418 40.196L10.3848 39.3818C10.2186 39.2633 10.0478 39.1339 9.87235 38.9936L9.24765 39.7744ZM11.0258 40.9309C11.2593 41.0427 11.4891 41.1347 11.7149 41.2052L12.0131 40.2508C11.8388 40.1963 11.6537 40.1229 11.4578 40.029L11.0258 40.9309ZM11.6919 41.1974L14.0919 42.0774L14.4361 41.1386L12.0361 40.2586L11.6919 41.1974ZM18.8919 43.8374L21.2919 44.7174L21.6361 43.7786L19.2361 42.8986L18.8919 43.8374ZM20.964 44.248V44.728H21.964V44.248H20.964ZM20.964 45.688V46.168H21.964V45.688H20.964ZM20.964 46.168C20.964 46.1734 20.9637 46.1749 20.9639 46.173C20.9642 46.1712 20.9651 46.1652 20.9677 46.1561L21.9275 46.4367C21.9545 46.3444 21.964 46.2529 21.964 46.168H20.964ZM21.1321 45.9917C21.1412 45.9891 21.1472 45.9882 21.149 45.9879C21.1509 45.9877 21.1494 45.988 21.144 45.988V46.988C21.2289 46.988 21.3204 46.9785 21.4127 46.9515L21.1321 45.9917ZM21.144 45.988H20.184V46.988H21.144V45.988ZM18.264 45.988H17.304V46.988H18.264V45.988ZM17.304 45.988C17.2986 45.988 17.2971 45.9877 17.299 45.9879C17.3008 45.9882 17.3068 45.9891 17.3159 45.9917L17.0353 46.9515C17.1276 46.9785 17.2191 46.988 17.304 46.988V45.988ZM17.4803 46.1561C17.4829 46.1652 17.4838 46.1712 17.4841 46.173C17.4843 46.1749 17.484 46.1734 17.484 46.168H16.484C16.484 46.2529 16.4935 46.3444 16.5205 46.4367L17.4803 46.1561ZM17.484 46.168V45.496H16.484V46.168H17.484ZM17.484 44.152V43.48H16.484V44.152H17.484ZM17.0207 42.9813L14.8447 42.8213L14.7713 43.8187L16.9473 43.9787L17.0207 42.9813ZM10.4927 42.5013L8.31667 42.3413L8.24333 43.3387L10.4193 43.4987L10.4927 42.5013ZM8.28 42.84L8.35333 41.8427L7.28 42.84H8.28ZM16.984 43.48H17.984L17.0573 42.4827L16.984 43.48ZM21.464 44.248H22.464L21.8083 43.3091L21.464 44.248ZM11.864 40.728L12.2083 39.7891L12.1623 39.7735L11.864 40.728ZM9.56 39.384L10.1847 38.6031L10.1847 38.6031L9.56 39.384ZM9.944 24.344L9.25089 23.6232L9.25089 23.6232L9.944 24.344ZM27.992 24.856L27.2849 25.5631L27.2955 25.5736L27.992 24.856ZM30.168 34.904L30.0947 35.9013L31.168 34.904H30.168ZM21.464 34.264H20.464L21.3907 35.2613L21.464 34.264ZM16.984 33.432H15.984L16.6397 34.3709L16.984 33.432ZM26.584 36.952L26.2397 37.8909L26.2857 37.9065L26.584 36.952ZM28.888 38.296L28.2633 39.0769L28.2633 39.0769L28.888 38.296ZM28.504 53.4L29.1971 54.1208L29.2111 54.1071L28.504 53.4ZM10.392 52.888L9.67442 53.5845L9.69552 53.6056L10.392 52.888ZM7.28 43.592V44.592H9.28V43.592H7.28ZM9.28 45.096V44.096H7.28V45.096H9.28ZM7.37365 47.8281L7.47347 48.8231L9.46348 48.6235L9.36366 47.6285L7.37365 47.8281ZM10.215 50.9047L9.7695 50.0094L7.97892 50.9004L8.42441 51.7957L10.215 50.9047ZM11.5032 54.8621L12.4003 55.304L13.284 53.5098L12.387 53.0679L11.5032 54.8621ZM15.6983 53.917L14.7031 53.8188L14.5068 55.8091L15.502 55.9073L15.6983 53.917ZM19.16 56H20.16V54H19.16V56ZM22.488 54H21.488V56H22.488V54ZM25.4864 55.9037L26.4753 55.7549L26.1776 53.7772L25.1887 53.926L25.4864 55.9037ZM27.043 53.2736L26.1901 53.7957L27.2342 55.5015L28.0871 54.9795L27.043 53.2736ZM30.0965 53.0086L30.6351 52.1661L28.9501 51.0888L28.4114 51.9313L30.0965 53.0086ZM29.0905 50.085L28.9348 51.0728L30.9104 51.3842L31.0662 50.3964L29.0905 50.085ZM31.168 47.16V46.16H29.168V47.16H31.168ZM29.168 43.384V44.384H31.168V43.384H29.168ZM31.0975 40.4634L30.9548 39.4736L28.9753 39.759L29.118 40.7488L31.0975 40.4634ZM28.6729 39.5153L29.242 40.3375L30.8865 39.1992L30.3173 38.377L28.6729 39.5153ZM28.9341 37.0769L28.1199 36.4963L26.9587 38.1247L27.7729 38.7053L28.9341 37.0769ZM26.7743 38.1019L27.6762 38.5339L28.54 36.73L27.6381 36.2981L26.7743 38.1019ZM24.5283 35.1331L23.5894 34.7889L22.9009 36.6666L23.8397 37.0109L24.5283 35.1331ZM19.0397 35.2509L19.9786 35.5951L20.6671 33.7174L19.7283 33.3731L19.0397 35.2509ZM17.984 32.968V31.968H15.984V32.968H17.984ZM15.984 32.04V33.04H17.984V32.04H15.984ZM17.9602 31.7282L18.2408 30.7684L16.3212 30.2071L16.0406 31.1669L17.9602 31.7282ZM16.8949 30.3126L15.9351 30.5932L16.4964 32.5128L17.4562 32.2322L16.8949 30.3126ZM18.264 32.256H19.264V30.256H18.264V32.256ZM20.184 30.256H19.184V32.256H20.184V30.256ZM20.9918 32.2322L21.9516 32.5128L22.5129 30.5932L21.5531 30.3126L20.9918 32.2322ZM22.4074 31.1669L22.1268 30.2071L20.2072 30.7684L20.4878 31.7282L22.4074 31.1669ZM20.464 32.248V33.248H22.464V32.248H20.464ZM22.464 33.592V32.592H20.464V33.592H22.464ZM23.5667 35.4213L24.564 35.4946L24.7106 33.5L23.7133 33.4267L23.5667 35.4213ZM28.0653 33.7467L27.068 33.6734L26.9214 35.668L27.9187 35.7413L28.0653 33.7467ZM31.168 34.152V33.152H29.168V34.152H31.168ZM29.168 32.648V33.648H31.168V32.648H29.168ZM31.0728 29.9062L30.9717 28.9114L28.9819 29.1136L29.0831 30.1085L31.0728 29.9062ZM28.2127 26.8344L28.6707 27.7234L30.4486 26.8074L29.9906 25.9185L28.2127 26.8344ZM26.9062 22.8783L26.011 22.4326L25.1197 24.223L26.0149 24.6687L26.9062 22.8783ZM22.7361 23.826L23.7313 23.9237L23.9268 21.9333L22.9316 21.8355L22.7361 23.826ZM19.288 21.744H18.288V23.744H19.288V21.744ZM15.96 23.744H16.96V21.744H15.96V23.744ZM12.9616 21.8403L11.9727 21.9891L12.2704 23.9668L13.2593 23.818L12.9616 21.8403ZM11.405 24.4704L12.2579 23.9483L11.2138 22.2425L10.3609 22.7645L11.405 24.4704ZM8.34225 24.7251L7.80081 25.5659L9.48228 26.6488L10.0237 25.808L8.34225 24.7251ZM9.35503 27.652L9.50563 26.6634L7.52845 26.3622L7.37784 27.3508L9.35503 27.652ZM7.28 30.568V31.568H9.28V30.568H7.28ZM9.28 34.312V33.312H7.28V34.312H9.28ZM7.35048 37.2166L7.49318 38.2064L9.47271 37.921L9.33001 36.9312L7.35048 37.2166ZM9.77514 38.1647L9.20598 37.3425L7.56153 38.4808L8.13069 39.303L9.77514 38.1647ZM9.51388 40.6031L10.3281 41.1836L11.4893 39.5553L10.6751 38.9747L9.51388 40.6031ZM11.6737 39.5781L10.7718 39.1461L9.90797 40.95L10.8099 41.3819L11.6737 39.5781ZM13.9197 42.5469L14.8586 42.8911L15.5471 41.0134L14.6083 40.6691L13.9197 42.5469ZM19.4083 42.4291L18.4694 42.0849L17.7809 43.9626L18.7197 44.3069L19.4083 42.4291ZM20.464 44.728V45.728H22.464V44.728H20.464ZM22.464 45.688V44.688H20.464V45.688H22.464ZM20.4878 46.0158L20.2072 46.9756L22.1268 47.5369L22.4074 46.5771L20.4878 46.0158ZM21.5531 47.4314L22.5129 47.1508L21.9516 45.2312L20.9918 45.5118L21.5531 47.4314ZM20.184 45.488H19.184V47.488H20.184V45.488ZM18.264 47.488H19.264V45.488H18.264V47.488ZM17.4562 45.5118L16.4964 45.2312L15.9351 47.1508L16.8949 47.4314L17.4562 45.5118ZM16.0406 46.5771L16.3212 47.5369L18.2408 46.9756L17.9602 46.0158L16.0406 46.5771ZM17.984 45.496V44.496H15.984V45.496H17.984ZM15.984 44.152V45.152H17.984V44.152H15.984ZM14.8813 42.3227L13.884 42.2494L13.7374 44.244L14.7347 44.3173L14.8813 42.3227ZM10.3827 43.9973L11.38 44.0706L11.5266 42.076L10.5293 42.0027L10.3827 43.9973ZM7.28 42.84V43.592H9.28V42.84H7.28ZM7.28 45.096V45.848H9.28V45.096H7.28ZM7.28 45.848C7.28 46.5418 7.31085 47.2021 7.37365 47.8281L9.36366 47.6285C9.30826 47.0762 9.28 46.483 9.28 45.848H7.28ZM8.42441 51.7957C8.76069 52.4715 9.17589 53.0708 9.67442 53.5845L11.1096 52.1915C10.7679 51.8395 10.4682 51.4136 10.215 50.9047L8.42441 51.7957ZM9.69552 53.6056C10.213 54.1078 10.8189 54.525 11.5032 54.8621L12.387 53.0679C11.8708 52.8137 11.4413 52.5129 11.0885 52.1704L9.69552 53.6056ZM15.502 55.9073C16.1321 55.9695 16.797 56 17.496 56V54C16.8547 54 16.2558 53.972 15.6983 53.917L15.502 55.9073ZM17.496 56H19.16V54H17.496V56ZM22.488 56H24.152V54H22.488V56ZM24.152 56C24.611 56 25.0562 55.9685 25.4864 55.9037L25.1887 53.926C24.8649 53.9748 24.5196 54 24.152 54V56ZM28.0871 54.9795C28.4862 54.7352 28.8563 54.4485 29.1971 54.1208L27.8109 52.6792C27.5723 52.9086 27.3165 53.1063 27.043 53.2736L28.0871 54.9795ZM29.2111 54.1071C29.5479 53.7703 29.8437 53.404 30.0965 53.0086L28.4114 51.9313C28.2386 52.2016 28.0344 52.4554 27.7969 52.6929L29.2111 54.1071ZM31.0662 50.3964C31.1347 49.9616 31.168 49.5118 31.168 49.048H29.168C29.168 49.4161 29.1416 49.7614 29.0905 50.085L31.0662 50.3964ZM31.168 49.048V47.16H29.168V49.048H31.168ZM31.168 43.384V41.496H29.168V43.384H31.168ZM31.168 41.496C31.168 41.139 31.1452 40.7943 31.0975 40.4634L29.118 40.7488C29.1506 40.9749 29.168 41.2235 29.168 41.496H31.168ZM30.3173 38.377C30.0917 38.051 29.8227 37.7631 29.5127 37.5151L28.2633 39.0769C28.4226 39.2043 28.5583 39.3498 28.6729 39.5153L30.3173 38.377ZM29.5127 37.5151C29.3175 37.359 29.1247 37.2128 28.9341 37.0769L27.7729 38.7053C27.9309 38.818 28.0944 38.9417 28.2633 39.0769L29.5127 37.5151ZM27.6381 36.2981C27.3859 36.1773 27.1338 36.0761 26.8823 35.9975L26.2857 37.9065C26.4344 37.9529 26.5971 38.0171 26.7743 38.1019L27.6381 36.2981ZM26.9283 36.0131L24.5283 35.1331L23.8397 37.0109L26.2397 37.8909L26.9283 36.0131ZM19.7283 33.3731L17.3283 32.4931L16.6397 34.3709L19.0397 35.2509L19.7283 33.3731ZM17.984 33.432V32.968H15.984V33.432H17.984ZM17.984 32.04V31.576H15.984V32.04H17.984ZM17.984 31.576C17.984 31.6009 17.9814 31.6556 17.9602 31.7282L16.0406 31.1669C15.9975 31.3142 15.984 31.4546 15.984 31.576H17.984ZM17.4562 32.2322C17.3836 32.2534 17.3289 32.256 17.304 32.256V30.256C17.1826 30.256 17.0422 30.2695 16.8949 30.3126L17.4562 32.2322ZM17.304 32.256H18.264V30.256H17.304V32.256ZM20.184 32.256H21.144V30.256H20.184V32.256ZM21.144 32.256C21.1191 32.256 21.0644 32.2534 20.9918 32.2322L21.5531 30.3126C21.4058 30.2695 21.2654 30.256 21.144 30.256V32.256ZM20.4878 31.7282C20.4666 31.6556 20.464 31.6009 20.464 31.576H22.464C22.464 31.4546 22.4505 31.3142 22.4074 31.1669L20.4878 31.7282ZM20.464 31.576V32.248H22.464V31.576H20.464ZM20.464 33.592V34.264H22.464V33.592H20.464ZM21.3907 35.2613L23.5667 35.4213L23.7133 33.4267L21.5373 33.2667L21.3907 35.2613ZM27.9187 35.7413L30.0947 35.9013L30.2413 33.9067L28.0653 33.7467L27.9187 35.7413ZM31.168 34.904V34.152H29.168V34.904H31.168ZM31.168 32.648V31.896H29.168V32.648H31.168ZM31.168 31.896C31.168 31.198 31.1367 30.5344 31.0728 29.9062L29.0831 30.1085C29.1393 30.6617 29.168 31.2573 29.168 31.896H31.168ZM29.9906 25.9185C29.6411 25.2401 29.2086 24.6432 28.6885 24.1384L27.2955 25.5736C27.6457 25.9135 27.953 26.3303 28.2127 26.8344L29.9906 25.9185ZM28.6991 24.1489C28.19 23.6397 27.5886 23.218 26.9062 22.8783L26.0149 24.6687C26.5245 24.9224 26.9441 25.2223 27.2849 25.5631L28.6991 24.1489ZM22.9316 21.8355C22.3067 21.7741 21.6465 21.744 20.952 21.744V23.744C21.5892 23.744 22.1836 23.7717 22.7361 23.826L22.9316 21.8355ZM20.952 21.744H19.288V23.744H20.952V21.744ZM15.96 21.744H14.296V23.744H15.96V21.744ZM14.296 21.744C13.837 21.744 13.3918 21.7755 12.9616 21.8403L13.2593 23.818C13.5831 23.7692 13.9284 23.744 14.296 23.744V21.744ZM10.3609 22.7645C9.96181 23.0088 9.59166 23.2955 9.25089 23.6232L10.6371 25.0648C10.8757 24.8354 11.1315 24.6377 11.405 24.4704L10.3609 22.7645ZM9.25089 23.6232C8.90385 23.9569 8.60035 24.3244 8.34225 24.7251L10.0237 25.808C10.196 25.5405 10.3999 25.2929 10.6371 25.0648L9.25089 23.6232ZM7.37784 27.3508C7.31196 27.7832 7.28 28.232 7.28 28.696H9.28C9.28 28.3237 9.30566 27.9761 9.35503 27.652L7.37784 27.3508ZM7.28 28.696V30.568H9.28V28.696H7.28ZM7.28 34.312V36.184H9.28V34.312H7.28ZM7.28 36.184C7.28 36.541 7.30276 36.8857 7.35048 37.2166L9.33001 36.9312C9.2974 36.7051 9.28 36.4565 9.28 36.184H7.28ZM8.13069 39.303C8.35632 39.629 8.62533 39.9169 8.93531 40.1649L10.1847 38.6031C10.0254 38.4757 9.88973 38.3302 9.77514 38.1647L8.13069 39.303ZM8.93531 40.1649C9.13048 40.321 9.32335 40.4672 9.51388 40.6031L10.6751 38.9747C10.5171 38.862 10.3536 38.7383 10.1847 38.6031L8.93531 40.1649ZM10.8099 41.3819C11.0621 41.5027 11.3142 41.6039 11.5657 41.6825L12.1623 39.7735C12.0136 39.7271 11.8509 39.6629 11.6737 39.5781L10.8099 41.3819ZM11.5197 41.6669L13.9197 42.5469L14.6083 40.6691L12.2083 39.7891L11.5197 41.6669ZM18.7197 44.3069L21.1197 45.1869L21.8083 43.3091L19.4083 42.4291L18.7197 44.3069ZM20.464 44.248V44.728H22.464V44.248H20.464ZM20.464 45.688V46.168H22.464V45.688H20.464ZM20.464 46.168C20.464 46.1431 20.4666 46.0884 20.4878 46.0158L22.4074 46.5771C22.4505 46.4298 22.464 46.2894 22.464 46.168H20.464ZM20.9918 45.5118C21.0644 45.4906 21.1191 45.488 21.144 45.488V47.488C21.2654 47.488 21.4058 47.4745 21.5531 47.4314L20.9918 45.5118ZM21.144 45.488H20.184V47.488H21.144V45.488ZM18.264 45.488H17.304V47.488H18.264V45.488ZM17.304 45.488C17.3289 45.488 17.3836 45.4906 17.4562 45.5118L16.8949 47.4314C17.0422 47.4745 17.1826 47.488 17.304 47.488V45.488ZM17.9602 46.0158C17.9814 46.0884 17.984 46.1431 17.984 46.168H15.984C15.984 46.2894 15.9975 46.4298 16.0406 46.5771L17.9602 46.0158ZM17.984 46.168V45.496H15.984V46.168H17.984ZM17.984 44.152V43.48H15.984V44.152H17.984ZM17.0573 42.4827L14.8813 42.3227L14.7347 44.3173L16.9107 44.4773L17.0573 42.4827ZM10.5293 42.0027L8.35333 41.8427L8.20667 43.8373L10.3827 43.9973L10.5293 42.0027Z" fill="#434343" mask="url(#path-2-outside-1_757_18)"/>
<path d="M0.5 17.5H109.5V107.5H8C3.85786 107.5 0.5 104.142 0.5 100V17.5Z" stroke="#434343"/>
<rect x="7" y="61" width="95" height="9" fill="#434343"/>
<path d="M7 75H102V101H13C9.68629 101 7 98.3137 7 95V75Z" fill="#E32027"/>
</svg>
